<svg width="199" height="36" viewBox="0 0 199 36" fill="none" xmlns="http://www.w3.org/2000/svg">
<path d="M1 35.2944L3.19312 29.8311H4.51992L6.69743 35.2944H5.02722L4.1531 32.9062C4.09586 32.7449 4.04643 32.607 4.00481 32.4925C3.96318 32.3781 3.92676 32.2714 3.89554 32.1726C3.86432 32.0685 3.83311 31.9592 3.80189 31.8448C3.77067 31.7251 3.73945 31.5846 3.70823 31.4233H3.97359C3.94237 31.5846 3.91115 31.7251 3.87993 31.8448C3.84871 31.9592 3.81489 32.0685 3.77847 32.1726C3.74725 32.2714 3.70823 32.3781 3.6614 32.4925C3.61978 32.607 3.57035 32.7449 3.51311 32.9062L2.63899 35.2944H1ZM2.09266 34.4827L2.58435 33.3355H5.12088L5.56575 34.4827H2.09266Z" fill="#293142"/>
<path d="M12.161 35.2944V34.2096L14.9629 30.5102L15.6809 31.3453H12.3639V29.8311H16.6097V30.9082L13.8234 34.6154L13.0976 33.874H16.6955V35.2944H12.161Z" fill="#293142"/>
<path d="M21.5992 35.3725C21.1673 35.3725 20.7719 35.3022 20.4128 35.1618C20.0538 35.0213 19.7416 34.8235 19.4763 34.5686C19.2109 34.3136 19.0054 34.0119 18.8597 33.6632C18.7192 33.3146 18.649 32.9348 18.649 32.5238C18.649 32.1075 18.7192 31.7277 18.8597 31.3843C19.0054 31.0357 19.2109 30.7339 19.4763 30.4789C19.7416 30.224 20.0538 30.0263 20.4128 29.8858C20.7719 29.7453 21.1647 29.675 21.5914 29.675C22.0232 29.675 22.416 29.7453 22.7699 29.8858C23.1289 30.0263 23.4411 30.224 23.7064 30.4789C23.9718 30.7339 24.1747 31.0357 24.3152 31.3843C24.4609 31.7277 24.5337 32.1049 24.5337 32.516C24.5337 32.9322 24.4609 33.3146 24.3152 33.6632C24.1747 34.0119 23.9718 34.3136 23.7064 34.5686C23.4411 34.8235 23.1289 35.0213 22.7699 35.1618C22.416 35.3022 22.0258 35.3725 21.5992 35.3725ZM21.5914 33.8115C21.7683 33.8115 21.9296 33.7803 22.0752 33.7179C22.2261 33.6554 22.3562 33.567 22.4655 33.4525C22.5799 33.3329 22.6658 33.195 22.723 33.0389C22.7855 32.8828 22.8167 32.7111 22.8167 32.5238C22.8167 32.3365 22.7855 32.1647 22.723 32.0087C22.6658 31.8526 22.5799 31.7173 22.4655 31.6028C22.3562 31.4831 22.2261 31.3921 22.0752 31.3296C21.9296 31.2672 21.7683 31.236 21.5914 31.236C21.4144 31.236 21.2505 31.2672 21.0997 31.3296C20.954 31.3921 20.8239 31.4831 20.7094 31.6028C20.6002 31.7173 20.5143 31.8526 20.4519 32.0087C20.3946 32.1647 20.366 32.3365 20.366 32.5238C20.366 32.7111 20.3946 32.8828 20.4519 33.0389C20.5143 33.195 20.6002 33.3329 20.7094 33.4525C20.8239 33.567 20.954 33.6554 21.0997 33.7179C21.2505 33.7803 21.4144 33.8115 21.5914 33.8115Z" fill="#293142"/>
<path d="M26.6799 35.2944V29.8311H28.1316L30.1218 33.0701L28.9433 33.0623L30.9569 29.8311H32.3617V35.2944H30.7383V33.991C30.7383 33.5228 30.7487 33.1013 30.7696 32.7267C30.7956 32.3521 30.8372 31.98 30.8944 31.6106L31.0817 32.1023L29.7627 34.1471H29.2476L27.9521 32.1023L28.1472 31.6106C28.2044 31.9592 28.2434 32.3182 28.2642 32.6877C28.2903 33.0519 28.3033 33.4863 28.3033 33.991V35.2944H26.6799Z" fill="#293142"/>
<path d="M34.0373 35.2944L36.2305 29.8311H37.5573L39.7348 35.2944H38.0646L37.1904 32.9062C37.1332 32.7449 37.0838 32.607 37.0421 32.4925C37.0005 32.3781 36.9641 32.2714 36.9329 32.1726C36.9017 32.0685 36.8704 31.9592 36.8392 31.8448C36.808 31.7251 36.7768 31.5846 36.7456 31.4233H37.0109C36.9797 31.5846 36.9485 31.7251 36.9173 31.8448C36.8861 31.9592 36.8522 32.0685 36.8158 32.1726C36.7846 32.2714 36.7456 32.3781 36.6987 32.4925C36.6571 32.607 36.6077 32.7449 36.5505 32.9062L35.6763 35.2944H34.0373ZM35.13 34.4827L35.6217 33.3355H38.1582L38.6031 34.4827H35.13Z" fill="#293142"/>
<path d="M42.323 35.2944V31.2672H40.6372V29.8311H45.7415V31.2672H44.0088V35.2944H42.323Z" fill="#293142"/>
<path d="M50.2104 35.3725C49.7785 35.3725 49.3831 35.3022 49.0241 35.1618C48.665 35.0213 48.3529 34.8235 48.0875 34.5686C47.8221 34.3136 47.6166 34.0119 47.4709 33.6632C47.3304 33.3146 47.2602 32.9348 47.2602 32.5238C47.2602 32.1075 47.3304 31.7277 47.4709 31.3843C47.6166 31.0357 47.8221 30.7339 48.0875 30.4789C48.3529 30.224 48.665 30.0263 49.0241 29.8858C49.3831 29.7453 49.7759 29.675 50.2026 29.675C50.6344 29.675 51.0273 29.7453 51.3811 29.8858C51.7401 30.0263 52.0523 30.224 52.3176 30.4789C52.583 30.7339 52.7859 31.0357 52.9264 31.3843C53.0721 31.7277 53.1449 32.1049 53.1449 32.516C53.1449 32.9322 53.0721 33.3146 52.9264 33.6632C52.7859 34.0119 52.583 34.3136 52.3176 34.5686C52.0523 34.8235 51.7401 35.0213 51.3811 35.1618C51.0273 35.3022 50.637 35.3725 50.2104 35.3725ZM50.2026 33.8115C50.3795 33.8115 50.5408 33.7803 50.6865 33.7179C50.8374 33.6554 50.9674 33.567 51.0767 33.4525C51.1912 33.3329 51.277 33.195 51.3343 33.0389C51.3967 32.8828 51.4279 32.7111 51.4279 32.5238C51.4279 32.3365 51.3967 32.1647 51.3343 32.0087C51.277 31.8526 51.1912 31.7173 51.0767 31.6028C50.9674 31.4831 50.8374 31.3921 50.6865 31.3296C50.5408 31.2672 50.3795 31.236 50.2026 31.236C50.0257 31.236 49.8618 31.2672 49.7109 31.3296C49.5652 31.3921 49.4351 31.4831 49.3206 31.6028C49.2114 31.7173 49.1255 31.8526 49.0631 32.0087C49.0059 32.1647 48.9772 32.3365 48.9772 32.5238C48.9772 32.7111 49.0059 32.8828 49.0631 33.0389C49.1255 33.195 49.2114 33.3329 49.3206 33.4525C49.4351 33.567 49.5652 33.6554 49.7109 33.7179C49.8618 33.7803 50.0257 33.8115 50.2026 33.8115Z" fill="#293142"/>
<path d="M61.8362 35.3725C61.3679 35.3725 60.9517 35.3022 60.5875 35.1618C60.2284 35.0213 59.9241 34.8235 59.6743 34.5686C59.4246 34.3136 59.2346 34.0119 59.1046 33.6632C58.9797 33.3146 58.9172 32.9348 58.9172 32.5238C58.9172 32.1075 58.9875 31.7277 59.128 31.3843C59.2737 31.0357 59.4818 30.7339 59.7523 30.4789C60.0229 30.224 60.3429 30.0263 60.7123 29.8858C61.087 29.7453 61.5032 29.675 61.9611 29.675C62.2785 29.675 62.5724 29.7141 62.843 29.7921C63.1188 29.8702 63.3659 29.9768 63.5845 30.1121C63.8082 30.2422 64.0007 30.3905 64.162 30.557L63.163 31.6184C63.0589 31.5196 62.9471 31.4337 62.8274 31.3609C62.7077 31.2828 62.5751 31.223 62.4294 31.1814C62.2837 31.1345 62.1198 31.1111 61.9377 31.1111C61.7504 31.1111 61.5786 31.1475 61.4226 31.2204C61.2665 31.288 61.1312 31.3843 61.0167 31.5092C60.9022 31.634 60.8112 31.7849 60.7435 31.9618C60.6811 32.1335 60.6499 32.3208 60.6499 32.5238C60.6499 32.7267 60.6837 32.9166 60.7514 33.0935C60.819 33.2652 60.9126 33.4135 61.0323 33.5384C61.152 33.6632 61.2951 33.7621 61.4616 33.835C61.6281 33.9026 61.8102 33.9364 62.0079 33.9364C62.1432 33.9364 62.2655 33.9156 62.3747 33.874C62.4892 33.8271 62.5855 33.7673 62.6635 33.6945C62.7468 33.6164 62.8118 33.5254 62.8586 33.4213C62.9054 33.312 62.9289 33.195 62.9289 33.0701V32.8438L63.1474 33.2184H61.7582V32.0321H64.443C64.4482 32.0893 64.4534 32.183 64.4586 32.313C64.469 32.4431 64.4742 32.5732 64.4742 32.7033C64.4794 32.8281 64.482 32.914 64.482 32.9608C64.482 33.3094 64.417 33.632 64.2869 33.9286C64.1568 34.2252 63.9721 34.4801 63.7327 34.6935C63.4986 34.9068 63.2202 35.0733 62.8976 35.193C62.575 35.3126 62.2212 35.3725 61.8362 35.3725Z" fill="#293142"/>
<path d="M66.5128 35.2944V33.9286H67.4728V31.197H66.5128V29.8311H70.1186V31.197H69.1586V33.9286H70.1186V35.2944H66.5128Z" fill="#293142"/>
<path d="M74.0155 35.2944L71.838 29.8311H73.5238L74.3979 32.2194C74.4604 32.3807 74.5098 32.5186 74.5462 32.633C74.5878 32.7475 74.6243 32.8568 74.6555 32.9608C74.6867 33.0597 74.7153 33.1663 74.7413 33.2808C74.7726 33.3953 74.8064 33.5358 74.8428 33.7023H74.5696C74.6217 33.4837 74.6659 33.3042 74.7023 33.1637C74.7439 33.0233 74.7882 32.8854 74.835 32.7501C74.887 32.6096 74.9521 32.4327 75.0301 32.2194L75.9042 29.8311H77.5354L75.3423 35.2944H74.0155Z" fill="#293142"/>
<path d="M79.2912 35.2944V29.8311H83.373V31.197H80.9067V33.9286H83.5135V35.2944H79.2912ZM80.095 33.1716V31.8916H83.0842V33.1716H80.095Z" fill="#293142"/>
<path d="M85.7142 35.2944V29.8311H88.2273C88.6227 29.8311 88.9557 29.8858 89.2263 29.995C89.5021 30.1043 89.7102 30.2578 89.8507 30.4555C89.9964 30.6532 90.0692 30.8848 90.0692 31.1501C90.0692 31.4779 89.9938 31.7485 89.8429 31.9618C89.6972 32.1752 89.4813 32.3182 89.1951 32.3911L89.1717 32.2428C89.411 32.3 89.6191 32.3937 89.796 32.5238C89.973 32.6486 90.1108 32.8021 90.2097 32.9842C90.3086 33.1663 90.358 33.3745 90.358 33.6086C90.358 33.8948 90.306 34.1445 90.2019 34.3579C90.0978 34.566 89.9495 34.7403 89.757 34.8808C89.5697 35.0213 89.3512 35.1253 89.1014 35.193C88.8569 35.2606 88.5915 35.2944 88.3053 35.2944H85.7142ZM87.2751 33.9676H88.2585C88.3574 33.9676 88.4406 33.952 88.5083 33.9208C88.5759 33.8844 88.6279 33.8324 88.6644 33.7647C88.7008 33.6919 88.719 33.606 88.719 33.5072C88.719 33.4187 88.6982 33.3459 88.6566 33.2886C88.6201 33.2262 88.5655 33.1794 88.4927 33.1481C88.4198 33.1117 88.3288 33.0935 88.2195 33.0935H87.2751V33.9676ZM87.2751 31.9696H87.9385C88.0582 31.9696 88.1545 31.954 88.2273 31.9228C88.3054 31.8916 88.36 31.8474 88.3912 31.7901C88.4276 31.7277 88.4458 31.6522 88.4458 31.5638C88.4458 31.4441 88.4042 31.3479 88.321 31.275C88.2429 31.197 88.1102 31.1579 87.9229 31.1579H87.2751V31.9696Z" fill="#293142"/>
<path d="M91.7226 35.2944L93.9157 29.8311H95.2425L97.42 35.2944H95.7498L94.8757 32.9062C94.8184 32.7449 94.769 32.607 94.7274 32.4925C94.6858 32.3781 94.6493 32.2714 94.6181 32.1726C94.5869 32.0685 94.5557 31.9592 94.5245 31.8448C94.4932 31.7251 94.462 31.5846 94.4308 31.4233H94.6962C94.6649 31.5846 94.6337 31.7251 94.6025 31.8448C94.5713 31.9592 94.5375 32.0685 94.5011 32.1726C94.4698 32.2714 94.4308 32.3781 94.384 32.4925C94.3424 32.607 94.2929 32.7449 94.2357 32.9062L93.3616 35.2944H91.7226ZM92.8152 34.4827L93.3069 33.3355H95.8435L96.2883 34.4827H92.8152Z" fill="#293142"/>
<path d="M101.634 35.3725C101.197 35.3725 100.793 35.3022 100.424 35.1618C100.06 35.0213 99.7424 34.8261 99.4719 34.5764C99.2065 34.3214 99.001 34.0197 98.8553 33.6711C98.7096 33.3224 98.6367 32.94 98.6367 32.5238C98.6367 32.1075 98.7096 31.7251 98.8553 31.3765C99.0062 31.0279 99.2169 30.7287 99.4875 30.4789C99.758 30.224 100.078 30.0263 100.447 29.8858C100.822 29.7453 101.233 29.675 101.681 29.675C101.936 29.675 102.185 29.7063 102.43 29.7687C102.68 29.8259 102.914 29.917 103.132 30.0419C103.356 30.1615 103.559 30.315 103.741 30.5023L102.734 31.6809C102.661 31.5924 102.573 31.5118 102.469 31.4389C102.37 31.3661 102.253 31.3088 102.118 31.2672C101.988 31.2204 101.837 31.197 101.665 31.197C101.488 31.197 101.319 31.2282 101.158 31.2906C101.002 31.3479 100.864 31.4337 100.744 31.5482C100.63 31.6626 100.538 31.8031 100.471 31.9696C100.403 32.1361 100.369 32.3286 100.369 32.5472C100.369 32.7449 100.403 32.9244 100.471 33.0857C100.538 33.247 100.635 33.3849 100.76 33.4994C100.884 33.6138 101.035 33.7023 101.212 33.7647C101.389 33.8271 101.587 33.8584 101.805 33.8584C101.962 33.8584 102.11 33.835 102.25 33.7881C102.391 33.7413 102.518 33.6815 102.633 33.6086C102.747 33.5306 102.846 33.4447 102.929 33.3511L103.733 34.6154C103.598 34.7611 103.418 34.8912 103.195 35.0057C102.971 35.1201 102.724 35.2112 102.453 35.2788C102.183 35.3413 101.91 35.3725 101.634 35.3725Z" fill="#293142"/>
<path d="M106.832 33.7413L106.263 32.4925L108.862 29.8311H110.774L106.832 33.7413ZM105.662 35.2944V29.8311H107.347V35.2944H105.662ZM109.088 35.2944L107.105 32.7111L108.198 31.7667L111 35.2944H109.088Z" fill="#293142"/>
<path d="M1 1.34018H5.46315L9.00101 14.1853L13.2328 1.34018H17.696L21.9278 14.1853L25.4657 1.34018H29.9288L24.1322 20.4855H20.0092L15.4916 7.32733L10.9468 20.4855H6.79665L1 1.34018Z" fill="#293142"/>
<path d="M37.0731 17.2197C37.6446 17.2197 38.2388 17.1018 38.8557 16.866C39.4816 16.621 39.9896 16.3126 40.3797 15.9407L42.9786 18.5941C42.3618 19.2472 41.5 19.7824 40.3933 20.1997C39.2956 20.617 38.198 20.8256 37.1003 20.8256C35.6943 20.8256 34.4016 20.4991 33.2223 19.8459C32.0521 19.1928 31.1313 18.2902 30.4601 17.1381C29.7978 16.0132 29.4667 14.716 29.4667 13.2464C29.4667 11.8313 29.7888 10.5477 30.4328 9.39562C31.0769 8.24355 31.9704 7.34094 33.1134 6.68779C34.202 6.06186 35.4539 5.7489 36.869 5.7489C38.3567 5.7489 39.6404 6.10722 40.7199 6.82387C41.7994 7.53144 42.6249 8.55651 43.1964 9.89908C43.7588 11.287 44.04 12.8564 44.04 14.6072H33.6441C33.88 15.4145 34.3018 16.0541 34.9096 16.5258C35.5265 16.9884 36.2476 17.2197 37.0731 17.2197ZM37.0459 9.34119C36.2748 9.34119 35.59 9.54983 34.9912 9.96712C34.3925 10.3844 33.9616 10.9559 33.6986 11.6816H40.1347C39.917 10.9378 39.5406 10.3617 39.0053 9.95351C38.4701 9.5453 37.817 9.34119 37.0459 9.34119Z" fill="#293142"/>
<path d="M52.6675 5.7489C53.9193 5.7489 55.0261 5.99836 55.9876 6.49729C56.9492 6.98715 57.6931 7.69472 58.2192 8.62001C58.7363 9.49994 58.9948 10.584 58.9948 11.8721V20.4855H55.0623V19.0431C54.5725 19.5965 53.9466 20.0319 53.1846 20.3494C52.4226 20.6669 51.6379 20.8256 50.8305 20.8256C49.7964 20.8256 48.8711 20.6351 48.0547 20.2541C47.2382 19.8731 46.5942 19.3288 46.1224 18.6213C45.6417 17.9228 45.4013 17.1245 45.4013 16.2264C45.4013 15.3102 45.6598 14.4892 46.1769 13.7635C46.6939 13.0287 47.4197 12.4527 48.354 12.0354C49.2702 11.6272 50.2817 11.4231 51.3884 11.4231C52.5496 11.4231 53.7742 11.668 55.0623 12.1579V11.8721C55.0623 10.974 54.7721 10.271 54.1915 9.76301C53.62 9.25501 52.8081 9.00101 51.7558 9.00101C50.5765 9.00101 49.3292 9.34573 48.0138 10.0352L46.6531 7.32733C48.7396 6.27504 50.7443 5.7489 52.6675 5.7489ZM51.7558 18.009C52.6267 18.009 53.366 17.8185 53.9738 17.4375C54.5816 17.0565 54.9444 16.5575 55.0623 15.9407V14.6072C54.128 14.2534 53.0984 14.0765 51.9735 14.0765C51.4837 14.0765 51.0346 14.1627 50.6264 14.335C50.2273 14.5074 49.9098 14.7523 49.6739 15.0698C49.438 15.3873 49.3201 15.732 49.3201 16.104C49.3201 16.6755 49.5469 17.1381 50.0005 17.4919C50.4541 17.8366 51.0392 18.009 51.7558 18.009Z" fill="#293142"/>
<path d="M70.4254 19.5602C69.9899 19.9412 69.4683 20.2496 68.8606 20.4855C68.2618 20.7122 67.6767 20.8256 67.1052 20.8256C66.2888 20.8256 65.5495 20.6397 64.8873 20.2677C64.2341 19.8958 63.7216 19.3697 63.3497 18.6893C62.9777 18.018 62.7918 17.2606 62.7918 16.4169V9.36841H60.8051V6.07547H62.7918V2.11579H66.6834V6.07547H69.8131V9.36841H66.6834V15.7774C66.6834 16.231 66.8149 16.6165 67.078 16.934C67.3411 17.2424 67.6677 17.3966 68.0577 17.3966C68.3389 17.3966 68.602 17.3558 68.8469 17.2742C69.1009 17.1835 69.3005 17.0655 69.4457 16.9204L70.4254 19.5602Z" fill="#293142"/>
<path d="M80.7402 5.7489C81.7562 5.7489 82.6769 5.98476 83.5024 6.45647C84.3279 6.92819 84.9674 7.58133 85.421 8.4159C85.8746 9.3049 86.1014 10.271 86.1014 11.3142V20.4855H82.1689V12.1851C82.1689 11.5954 82.0555 11.0738 81.8287 10.6203C81.6019 10.1667 81.2844 9.81291 80.8762 9.55891C80.4589 9.3049 79.9782 9.17791 79.4339 9.17791C78.8805 9.17791 78.3725 9.30037 77.9099 9.5453C77.4472 9.79023 77.0844 10.1259 76.8213 10.5522C76.5582 10.9786 76.4267 11.4458 76.4267 11.9538V20.4855H72.3581V1H76.4267V7.8308C76.8893 7.19579 77.5062 6.69233 78.2773 6.3204C79.0574 5.9394 79.8784 5.7489 80.7402 5.7489Z" fill="#293142"/>
<path d="M95.7766 17.2197C96.3481 17.2197 96.9423 17.1018 97.5592 16.866C98.1851 16.621 98.6931 16.3126 99.0832 15.9407L101.682 18.5941C101.065 19.2472 100.203 19.7824 99.0968 20.1997C97.9991 20.617 96.9015 20.8256 95.8038 20.8256C94.3978 20.8256 93.1051 20.4991 91.9258 19.8459C90.7556 19.1928 89.8348 18.2902 89.1635 17.1381C88.5013 16.0132 88.1702 14.716 88.1702 13.2464C88.1702 11.8313 88.4922 10.5477 89.1363 9.39562C89.7804 8.24355 90.6739 7.34094 91.8169 6.68779C92.9055 6.06186 94.1574 5.7489 95.5725 5.7489C97.0602 5.7489 98.3438 6.10722 99.4233 6.82387C100.503 7.53144 101.328 8.55651 101.9 9.89908C102.462 11.287 102.743 12.8564 102.743 14.6072H92.3476C92.5835 15.4145 93.0053 16.0541 93.6131 16.5258C94.2299 16.9884 94.9511 17.2197 95.7766 17.2197ZM95.7494 9.34119C94.9783 9.34119 94.2934 9.54983 93.6947 9.96712C93.096 10.3844 92.6651 10.9559 92.402 11.6816H98.8382C98.6205 10.9378 98.244 10.3617 97.7088 9.95351C97.1736 9.5453 96.5205 9.34119 95.7494 9.34119Z" fill="#293142"/>
<path d="M109.003 8.75608C109.493 7.80358 110.164 7.06426 111.017 6.53812C111.879 6.01197 112.854 5.7489 113.943 5.7489V9.17791C112.945 9.17791 112.074 9.3548 111.33 9.70858C110.586 10.0624 110.015 10.5749 109.616 11.2462C109.207 11.9084 109.003 12.6931 109.003 13.6002V20.4855H104.935V6.07547H109.003V8.75608Z" fill="#293142"/>
<path d="M131.701 20.8256C130.041 20.8256 128.549 20.4582 127.224 19.7235C125.909 18.9887 124.884 17.9591 124.149 16.6346C123.405 15.3465 123.033 13.8724 123.033 12.2123V1.34018H127.129V12.0354C127.129 12.9879 127.324 13.8542 127.714 14.6344C128.113 15.4054 128.662 16.0087 129.361 16.4441C130.059 16.8705 130.839 17.0837 131.701 17.0837C132.581 17.0837 133.361 16.8705 134.042 16.4441C134.731 16.0178 135.271 15.4145 135.661 14.6344C136.051 13.8905 136.246 13.0242 136.246 12.0354V1.34018H140.369V12.2123C140.369 13.8633 140.002 15.3465 139.267 16.6618C138.541 17.9681 137.516 18.9841 136.192 19.7098C134.903 20.4537 133.407 20.8256 131.701 20.8256Z" fill="#293142"/>
<path d="M151.759 5.7489C152.775 5.7489 153.695 5.98476 154.521 6.45647C155.346 6.92819 155.986 7.58133 156.44 8.4159C156.893 9.3049 157.12 10.271 157.12 11.3142V20.4855H153.187V12.1851C153.187 11.5954 153.074 11.0738 152.847 10.6203C152.62 10.1667 152.303 9.81291 151.895 9.55891C151.477 9.3049 150.997 9.17791 150.452 9.17791C149.899 9.17791 149.391 9.30037 148.928 9.5453C148.466 9.79023 148.103 10.1259 147.84 10.5522C147.577 10.9786 147.445 11.4458 147.445 11.9538L147.418 11.8721V20.4855H143.349V6.07547H147.418V7.88522C147.844 7.21394 148.439 6.69233 149.201 6.3204C149.972 5.9394 150.824 5.7489 151.759 5.7489Z" fill="#293142"/>
<path d="M159.964 6.07547H164.033V20.4855H159.964V6.07547Z" fill="#293142"/>
<path d="M174.103 20.8256C172.715 20.8256 171.413 20.4855 170.197 19.8051C168.991 19.1157 168.029 18.1813 167.313 17.002C166.587 15.8681 166.224 14.6253 166.224 13.2737C166.224 11.9402 166.573 10.6974 167.272 9.5453C167.979 8.38415 168.946 7.45887 170.17 6.76944C171.35 6.08908 172.66 5.7489 174.103 5.7489C175.482 5.7489 176.77 6.08908 177.967 6.76944C179.174 7.44072 180.144 8.36147 180.879 9.53169C181.587 10.6838 181.94 11.9311 181.94 13.2737C181.94 14.5981 181.587 15.8454 180.879 17.0156C180.172 18.1768 179.214 19.1021 178.008 19.7915C176.829 20.4809 175.527 20.8256 174.103 20.8256ZM174.103 17.3966C174.801 17.3966 175.454 17.2061 176.062 16.8251C176.679 16.4441 177.169 15.9361 177.532 15.3011C177.885 14.6843 178.062 14.0084 178.062 13.2737C178.062 12.557 177.885 11.8812 177.532 11.2462C177.178 10.6112 176.697 10.1032 176.089 9.72219C175.482 9.35933 174.819 9.17791 174.103 9.17791C173.404 9.17791 172.751 9.36387 172.143 9.7358C171.545 10.0987 171.055 10.5976 170.674 11.2326C170.302 11.9039 170.116 12.5842 170.116 13.2737C170.116 13.9903 170.297 14.6707 170.66 15.3147C171.023 15.9497 171.513 16.4577 172.13 16.8387C172.774 17.2107 173.431 17.3966 174.103 17.3966Z" fill="#293142"/>
<path d="M192.459 5.7489C193.475 5.7489 194.396 5.98476 195.222 6.45647C196.047 6.92819 196.687 7.58133 197.14 8.4159C197.594 9.3049 197.821 10.271 197.821 11.3142V20.4855H193.888V12.1851C193.888 11.5954 193.775 11.0738 193.548 10.6203C193.321 10.1667 193.004 9.81291 192.595 9.55891C192.178 9.3049 191.697 9.17791 191.153 9.17791C190.6 9.17791 190.092 9.30037 189.629 9.5453C189.166 9.79023 188.804 10.1259 188.54 10.5522C188.277 10.9786 188.146 11.4458 188.146 11.9538L188.119 11.8721V20.4855H184.05V6.07547H188.119V7.88522C188.545 7.21394 189.139 6.69233 189.901 6.3204C190.672 5.9394 191.525 5.7489 192.459 5.7489Z" fill="#293142"/>
</svg>
